<svg width="338" height="244" viewBox="0 0 338 244" fill="none" xmlns="http://www.w3.org/2000/svg">
<g clip-path="url(#clip0_246_1294)">
<path d="M84.7122 211.402C78.9684 234.438 55.6344 248.457 32.5933 242.713C9.56168 236.97 -4.45915 213.637 1.28734 190.603C7.02845 167.564 30.3625 153.544 53.3968 159.287C76.4365 165.03 90.456 188.365 84.7122 211.402Z" fill="black"/>
</g>
<g clip-path="url(#clip1_246_1294)">
<path d="M150 212C150 229.673 135.673 244 118 244C100.327 244 86 229.673 86 212C86 194.327 100.327 180 118 180C135.673 180 150 194.327 150 212" fill="black"/>
</g>
<g clip-path="url(#clip2_246_1294)">
<path d="M237.999 200C237.999 224.3 218.3 244 194 244C169.699 244 150 224.3 150 200C150 175.699 169.699 156 194 156C218.3 156 237.999 175.699 237.999 200" fill="black"/>
</g>
<g clip-path="url(#clip3_246_1294)">
<path d="M337.999 151C337.999 181.928 312.928 207 282 207C251.072 207 226 181.928 226 151C226 120.072 251.072 95 282 95C312.927 95 337.999 120.072 337.999 151" fill="black"/>
</g>
<g clip-path="url(#clip4_246_1294)">
<path d="M173 141C173 163.091 155.091 181 133 181C110.908 181 93 163.091 93 141C93 118.909 110.908 101 133 101C155.091 101 173 118.909 173 141" fill="black"/>
</g>
<g clip-path="url(#clip5_246_1294)">
<path d="M338 65.9998C338 83.673 323.673 98 306 98C288.327 98 274 83.673 274 65.9998C274 48.3268 288.327 34 306 34C323.673 34 338 48.3268 338 65.9998" fill="black"/>
</g>
<g clip-path="url(#clip6_246_1294)">
<path d="M233 115C233 132.673 218.673 147 201 147C183.327 147 169 132.673 169 115C169 97.3268 183.327 83 201 83C218.673 83 233 97.3268 233 115" fill="black"/>
</g>
<g clip-path="url(#clip7_246_1294)">
<path d="M273.999 43.9997C273.999 68.3004 254.3 88 230 88C205.699 88 186 68.3004 186 43.9997C186 19.6994 205.699 1.52588e-05 230 1.52588e-05C254.3 1.52588e-05 273.999 19.6994 273.999 43.9997" fill="black"/>
</g>
<path d="M301.273 81H301.032C298.719 81 297.109 78.7015 297.9 76.5275L298.591 74.6253C299.17 73.0341 298.464 71.2619 296.949 70.5047L295.921 69.9907C294.693 69.3765 294.693 67.6235 295.921 67.0093L296.949 66.4953C298.464 65.7381 299.17 63.9659 298.591 62.3747L297.9 60.4725C297.109 58.2985 298.719 56 301.032 56H301.273M311.273 81H311.514C313.827 81 315.437 78.7015 314.647 76.5275L313.955 74.6253C313.377 73.0341 314.083 71.2619 315.597 70.5047L316.625 69.9907C317.854 69.3765 317.854 67.6235 316.625 67.0093L315.597 66.4953C314.083 65.7381 313.377 63.9659 313.955 62.3747L314.647 60.4725C315.437 58.2985 313.827 56 311.514 56H311.273" stroke="white" stroke-width="2" stroke-linecap="round" stroke-linejoin="round"/>
<path d="M193 192H194.667" stroke="white" stroke-width="2" stroke-linecap="round" stroke-linejoin="round"/>
<path d="M212.611 211.077V188.923C212.611 186.204 210.472 184 207.833 184H179.167C176.528 184 174.389 186.204 174.389 188.923V211.077M175.185 216H211.815C213.574 216 215 214.531 215 212.718C215 211.812 214.287 211.077 213.407 211.077H173.593C172.713 211.077 172 211.812 172 212.718C172 214.531 173.426 216 175.185 216Z" stroke="white" stroke-width="2" stroke-linecap="round" stroke-linejoin="round"/>
<path d="M206.167 99.1666H195.833C192.1 99.1666 190.233 99.1666 188.807 99.8932C187.552 100.532 186.533 101.552 185.893 102.807C185.167 104.233 185.167 106.1 185.167 109.833V120.167C185.167 123.9 185.167 125.767 185.893 127.193C186.533 128.448 187.552 129.468 188.807 130.107C190.233 130.833 192.1 130.833 195.833 130.833H206.167C209.9 130.833 211.767 130.833 213.193 130.107C214.448 129.468 215.468 128.448 216.107 127.193C216.833 125.767 216.833 123.9 216.833 120.167V109.833C216.833 106.1 216.833 104.233 216.107 102.807C215.468 101.552 214.448 100.532 213.193 99.8932C211.767 99.1666 209.9 99.1666 206.167 99.1666Z" stroke="white" stroke-width="2" stroke-linecap="round" stroke-linejoin="round"/>
<path d="M202.667 123.333H210.167" stroke="white" stroke-width="2" stroke-linecap="round" stroke-linejoin="round"/>
<path d="M192.667 113.333L197.556 117.002C198.445 117.669 198.444 119.002 197.555 119.669L192.667 123.333" stroke="white" stroke-width="2" stroke-linecap="round" stroke-linejoin="round"/>
<path d="M38.1576 187.428V184M29.7408 195.142H26M31.9795 200.804L29.3344 203.228M46.981 187.055L44.3359 189.479M29.3341 187.055L31.9792 189.48M45.6534 214.254L48.4362 207.582C48.8139 206.677 49.69 206.024 50.7346 205.871L57.5053 204.879C60.4315 204.449 60.9321 200.784 58.2114 199.707L40.1458 192.558C37.9571 191.692 35.6058 193.43 36.066 195.573L39.9813 213.809C40.5555 216.484 44.5915 216.8 45.6534 214.254Z" stroke="white" stroke-width="2" stroke-linecap="round" stroke-linejoin="round"/>
<defs>
<clipPath id="clip0_246_1294">
<rect width="86" height="86" fill="white" transform="translate(0 158)"/>
</clipPath>
<clipPath id="clip1_246_1294">
<rect width="64" height="64" fill="white" transform="translate(86 180)"/>
</clipPath>
<clipPath id="clip2_246_1294">
<rect width="88" height="88" fill="white" transform="translate(150 156)"/>
</clipPath>
<clipPath id="clip3_246_1294">
<rect width="112" height="112" fill="white" transform="translate(226 95)"/>
</clipPath>
<clipPath id="clip4_246_1294">
<rect width="80" height="80" fill="white" transform="translate(93 101)"/>
</clipPath>
<clipPath id="clip5_246_1294">
<rect width="64" height="64" fill="white" transform="translate(274 34)"/>
</clipPath>
<clipPath id="clip6_246_1294">
<rect width="64" height="64" fill="white" transform="translate(169 83)"/>
</clipPath>
<clipPath id="clip7_246_1294">
<rect width="88" height="88" fill="white" transform="translate(186)"/>
</clipPath>
</defs>
</svg>
