<svg width="469" height="174" viewBox="0 0 469 174" fill="none" xmlns="http://www.w3.org/2000/svg">
<g clip-path="url(#clip0_251_1217)">
<path d="M111.999 118C111.999 148.928 86.9278 174 56 174C25.0719 174 0 148.928 0 118C0 87.0719 25.0719 62 56 62C86.9274 62 111.999 87.0719 111.999 118Z" fill="#6166BE"/>
<path d="M30.3 95.5C28.5577 95.5 27.15 97.5109 27.15 100V136C27.15 138.489 28.5577 140.5 30.3 140.5H80.7C82.4423 140.5 83.85 138.489 83.85 136V100C83.85 97.5109 82.4423 95.5 80.7 95.5H30.3ZM24 100C24 95.0359 26.8252 91 30.3 91H80.7C84.1748 91 87 95.0359 87 100V136C87 140.964 84.1748 145 80.7 145H30.3C26.8252 145 24 140.964 24 136V100ZM41.325 104.5C41.9648 104.5 42.5456 105.063 42.7917 105.92L49.0917 128.42C49.4166 129.573 49.0228 130.881 48.2156 131.345C47.4084 131.809 46.493 131.247 46.1681 130.094L45.3019 127H45.2625H37.3875H37.3481L36.4819 130.08C36.157 131.233 35.2416 131.795 34.4344 131.331C33.6272 130.867 33.2334 129.559 33.5583 128.406L39.8583 105.906C40.0945 105.048 40.6753 104.486 41.325 104.486V104.5ZM41.325 112.811L38.6081 122.5H44.032L41.325 112.811ZM52.35 106.75C52.35 105.512 53.0588 104.5 53.925 104.5H59.4375C62.4792 104.5 64.95 108.03 64.95 112.375C64.95 114.077 64.5759 115.652 63.9263 116.945C65.4914 118.337 66.525 120.812 66.525 123.625C66.525 127.97 64.0542 131.5 61.0125 131.5H53.925C53.0588 131.5 52.35 130.488 52.35 129.25V127V118V109V106.75ZM59.4375 120.25H55.5V127H61.0125C62.3217 127 63.375 125.495 63.375 123.625C63.375 121.755 62.3217 120.25 61.0125 120.25H59.4375ZM59.4375 115.75C60.7467 115.75 61.8 114.245 61.8 112.375C61.8 110.505 60.7467 109 59.4375 109H55.5V115.75H59.4375Z" fill="white"/>
</g>
<g clip-path="url(#clip1_251_1217)">
<path d="M436.999 118C436.999 148.928 411.928 174 381 174C350.072 174 325 148.928 325 118C325 87.0719 350.072 62 381 62C411.927 62 436.999 87.0719 436.999 118Z" fill="#6166BE"/>
<g clip-path="url(#clip2_251_1217)">
<path d="M402.429 91.75C404.799 91.75 406.714 93.4258 406.714 95.5V140.5C406.714 142.574 404.799 144.25 402.429 144.25H359.571C357.201 144.25 355.286 142.574 355.286 140.5V95.5C355.286 93.4258 357.201 91.75 359.571 91.75H402.429ZM359.571 88C354.844 88 351 91.3633 351 95.5V140.5C351 144.637 354.844 148 359.571 148H402.429C407.156 148 411 144.637 411 140.5V95.5C411 91.3633 407.156 88 402.429 88H359.571ZM372.429 103C372.429 104.031 373.393 104.875 374.571 104.875H398.143C399.321 104.875 400.286 104.031 400.286 103C400.286 101.969 399.321 101.125 398.143 101.125H374.571C373.393 101.125 372.429 101.969 372.429 103ZM372.429 118C372.429 119.031 373.393 119.875 374.571 119.875H398.143C399.321 119.875 400.286 119.031 400.286 118C400.286 116.969 399.321 116.125 398.143 116.125H374.571C373.393 116.125 372.429 116.969 372.429 118ZM372.429 133C372.429 134.031 373.393 134.875 374.571 134.875H398.143C399.321 134.875 400.286 134.031 400.286 133C400.286 131.969 399.321 131.125 398.143 131.125H374.571C373.393 131.125 372.429 131.969 372.429 133ZM362.786 100.188C361.607 100.188 360.643 101.031 360.643 102.062V103.938C360.643 104.969 361.607 105.812 362.786 105.812H364.929C366.107 105.812 367.071 104.969 367.071 103.938V102.062C367.071 101.031 366.107 100.188 364.929 100.188H362.786ZM360.643 117.062V118.938C360.643 119.969 361.607 120.812 362.786 120.812H364.929C366.107 120.812 367.071 119.969 367.071 118.938V117.062C367.071 116.031 366.107 115.188 364.929 115.188H362.786C361.607 115.188 360.643 116.031 360.643 117.062ZM362.786 130.188C361.607 130.188 360.643 131.031 360.643 132.062V133.938C360.643 134.969 361.607 135.812 362.786 135.812H364.929C366.107 135.812 367.071 134.969 367.071 133.938V132.062C367.071 131.031 366.107 130.188 364.929 130.188H362.786Z" fill="white"/>
</g>
</g>
<g clip-path="url(#clip3_251_1217)">
<path d="M469 37.9998C469 58.9867 451.987 76 431 76C410.013 76 393 58.9867 393 37.9998C393 17.0131 410.013 0 431 0C451.986 0 469 17.0131 469 37.9998Z" fill="#6166BE"/>
</g>
<g clip-path="url(#clip4_251_1217)">
<path d="M319 136C319 156.987 301.987 174 281 174C260.013 174 243 156.987 243 136C243 115.013 260.013 98 281 98C301.986 98 319 115.013 319 136Z" fill="#6166BE"/>
</g>
<g clip-path="url(#clip5_251_1217)">
<path d="M219.999 85.9996C219.999 116.928 194.928 142 164 142C133.072 142 108 116.928 108 85.9996C108 55.0719 133.072 30 164 30C194.927 30 219.999 55.0719 219.999 85.9996Z" fill="#6166BE"/>
<g clip-path="url(#clip6_251_1217)">
<path d="M155.25 105.812C155.25 103.565 153.295 101.75 150.875 101.75H137.75C135.33 101.75 133.375 99.9346 133.375 97.6875V61.125C133.375 58.8779 135.33 57.0625 137.75 57.0625H190.25C192.67 57.0625 194.625 58.8779 194.625 61.125V97.6875C194.625 99.9346 192.67 101.75 190.25 101.75H171.287C170.344 101.75 169.414 102.029 168.662 102.562L155.25 111.906V105.812ZM137.75 53C132.924 53 129 56.6436 129 61.125V97.6875C129 102.169 132.924 105.812 137.75 105.812H146.5H150.875V109.875V115.969C150.875 116.743 151.34 117.441 152.078 117.784C152.816 118.127 153.705 118.051 154.375 117.594L171.287 105.812H190.25C195.076 105.812 199 102.169 199 97.6875V61.125C199 56.6436 195.076 53 190.25 53H137.75ZM139.938 81.4375C138.734 81.4375 137.75 82.3516 137.75 83.4688C137.75 84.5859 138.734 85.5 139.938 85.5H170.562C171.766 85.5 172.75 84.5859 172.75 83.4688C172.75 82.3516 171.766 81.4375 170.562 81.4375H139.938ZM179.312 81.4375C178.109 81.4375 177.125 82.3516 177.125 83.4688C177.125 84.5859 178.109 85.5 179.312 85.5H188.062C189.266 85.5 190.25 84.5859 190.25 83.4688C190.25 82.3516 189.266 81.4375 188.062 81.4375H179.312ZM139.938 89.5625C138.734 89.5625 137.75 90.4766 137.75 91.5938C137.75 92.7109 138.734 93.625 139.938 93.625H153.062C154.266 93.625 155.25 92.7109 155.25 91.5938C155.25 90.4766 154.266 89.5625 153.062 89.5625H139.938ZM161.812 89.5625C160.609 89.5625 159.625 90.4766 159.625 91.5938C159.625 92.7109 160.609 93.625 161.812 93.625H188.062C189.266 93.625 190.25 92.7109 190.25 91.5938C190.25 90.4766 189.266 89.5625 188.062 89.5625H161.812Z" fill="white"/>
</g>
</g>
<g clip-path="url(#clip7_251_1217)">
<path d="M335 78.9998C335 92.807 323.807 104 310 104C296.193 104 285 92.807 285 78.9998C285 65.1928 296.193 54 310 54C323.807 54 335 65.1928 335 78.9998Z" fill="#6166BE"/>
</g>
<g clip-path="url(#clip8_251_1217)">
<path d="M243 149C243 162.807 231.807 174 218 174C204.193 174 193 162.807 193 149C193 135.193 204.193 124 218 124C231.807 124 243 135.193 243 149Z" fill="#6166BE"/>
</g>
<defs>
<clipPath id="clip0_251_1217">
<rect width="112" height="112" fill="white" transform="translate(0 62)"/>
</clipPath>
<clipPath id="clip1_251_1217">
<rect width="112" height="112" fill="white" transform="translate(325 62)"/>
</clipPath>
<clipPath id="clip2_251_1217">
<rect width="60" height="60" fill="white" transform="translate(351 88)"/>
</clipPath>
<clipPath id="clip3_251_1217">
<rect width="76" height="76" fill="white" transform="translate(393)"/>
</clipPath>
<clipPath id="clip4_251_1217">
<rect width="76" height="76" fill="white" transform="translate(243 98)"/>
</clipPath>
<clipPath id="clip5_251_1217">
<rect width="112" height="112" fill="white" transform="translate(108 30)"/>
</clipPath>
<clipPath id="clip6_251_1217">
<rect width="70" height="65" fill="white" transform="translate(129 53)"/>
</clipPath>
<clipPath id="clip7_251_1217">
<rect width="50" height="50" fill="white" transform="translate(285 54)"/>
</clipPath>
<clipPath id="clip8_251_1217">
<rect width="50" height="50" fill="white" transform="translate(193 124)"/>
</clipPath>
</defs>
</svg>
