<svg width="411" height="73" viewBox="0 0 411 73" fill="none" xmlns="http://www.w3.org/2000/svg">
<path d="M48.161 49.2396L47.2696 47.4492L48.161 49.2396ZM55.9523 25.4513L57.818 26.1717L55.9523 25.4513ZM93.2886 48.8149L92.261 50.5307L93.2886 48.8149ZM170.921 70.2826L170.589 68.3104L170.921 70.2826ZM408.5 18L409.499 19.7324C410.254 19.2971 410.64 18.4235 410.454 17.5726L408.5 18ZM406.954 1.57261C406.718 0.493552 405.652 -0.189843 404.573 0.0461999C403.494 0.282243 402.81 1.34834 403.046 2.42739L406.954 1.57261ZM394.501 23.7676C393.544 24.3196 393.216 25.5427 393.768 26.4994C394.32 27.4562 395.543 27.7843 396.499 27.2324L394.501 23.7676ZM3.16051 44.9215C7.01779 42.1733 10.0813 40.1597 12.6193 38.7857C15.1671 37.4064 17.0582 36.7432 18.5859 36.5719C21.3575 36.2612 23.5108 37.5041 27.0725 41.2687L29.9782 38.5196C26.3057 34.6381 22.9472 32.0579 18.1402 32.5968C15.8785 32.8504 13.4636 33.7801 10.7149 35.2681C7.95647 36.7615 4.73312 38.8897 0.839486 41.6637L3.16051 44.9215ZM27.0725 41.2687C30.8186 45.2281 34.8559 48.2627 38.5995 50.0378C42.23 51.7593 46.0714 52.5142 49.0524 51.0299L47.2696 47.4492C45.9849 48.0889 43.6255 47.9941 40.3133 46.4235C37.1139 44.9065 33.4663 42.2064 29.9782 38.5196L27.0725 41.2687ZM49.0524 51.0299C50.4732 50.3225 52.2541 48.8044 54.0315 47.0016C55.8607 45.1462 57.8518 42.8176 59.6961 40.3071C61.5381 37.7998 63.2637 35.0702 64.5373 32.4112C65.7921 29.7913 66.6963 27.06 66.6963 24.6018H62.6963C62.6963 26.179 62.0854 28.2705 60.9297 30.6833C59.7928 33.0571 58.2125 35.5704 56.4725 37.9389C54.7349 40.3042 52.8681 42.4842 51.183 44.1934C49.4461 45.9552 48.0563 47.0575 47.2696 47.4492L49.0524 51.0299ZM66.6963 24.6018C66.6963 22.4387 66.3424 20.5602 65.5621 19.1581C64.7459 17.6914 63.3477 16.6129 61.514 16.7066C59.8618 16.7911 58.4133 17.8152 57.2686 19.1194C56.0872 20.4657 55.0037 22.3558 54.0866 24.7308L57.818 26.1717C58.6233 24.0864 59.4941 22.6478 60.275 21.7579C61.0929 20.826 61.615 20.7067 61.7182 20.7014C61.7395 20.7003 61.7374 20.6996 61.7563 20.7117C61.792 20.7347 61.9142 20.8289 62.0669 21.1032C62.3878 21.6799 62.6963 22.7952 62.6963 24.6018H66.6963ZM54.0866 24.7308C52.7736 28.1308 52.693 32.1232 53.3398 35.9966C53.9901 39.8906 55.4006 43.8218 57.2456 47.1967C59.0765 50.5461 61.4193 53.4998 64.0291 55.2864C66.677 57.0989 69.8992 57.8634 72.9492 56.0581L70.9118 52.6159C69.6557 53.3594 68.1571 53.2647 66.2886 51.9856C64.3821 50.6805 62.4129 48.3101 60.7554 45.278C59.1119 42.2716 57.8574 38.7642 57.2852 35.3377C56.7096 31.8906 56.8491 28.6807 57.818 26.1717L54.0866 24.7308ZM72.9492 56.0581C75.1946 54.7291 77.0921 53.335 78.7385 52.1504C80.4247 50.9373 81.7952 49.9844 83.1438 49.3489C84.4423 48.737 85.6576 48.4527 87.0068 48.5639C88.3843 48.6774 90.0678 49.2173 92.261 50.5307L94.3161 47.099C91.7789 45.5796 89.5038 44.7561 87.3354 44.5774C85.1386 44.3964 83.2205 44.8909 81.4387 45.7306C79.7068 46.5467 78.05 47.7181 76.4024 48.9035C74.7151 50.1175 72.9724 51.3962 70.9118 52.6159L72.9492 56.0581ZM92.261 50.5307C99.8757 55.0908 112.892 61.6202 127.313 66.4634C141.685 71.2902 157.72 74.5352 171.254 72.2548L170.589 68.3104C158.035 70.4258 142.757 67.4307 128.587 62.6715C114.465 57.9288 101.709 51.5264 94.3161 47.099L92.261 50.5307ZM171.254 72.2548C179.649 70.8401 190.413 67.0142 202.3 62.0107C214.219 56.994 227.414 50.7296 240.701 44.3629C267.386 31.5766 294.299 18.4599 312.59 13.7764L311.598 9.90137C292.823 14.7087 265.455 28.0665 238.973 40.7557C225.676 47.1268 212.565 53.3503 200.749 58.324C188.9 63.3109 178.498 66.9778 170.589 68.3104L171.254 72.2548ZM312.59 13.7764C330.876 9.09412 350.701 8.01971 367.959 9.42009C385.294 10.8268 399.73 14.7049 407.413 19.6789L409.587 16.3211C401.067 10.8052 385.832 6.85729 368.282 5.43319C350.654 4.00276 330.378 5.09274 311.598 9.90137L312.59 13.7764ZM410.454 17.5726L406.954 1.57261L403.046 2.42739L406.546 18.4274L410.454 17.5726ZM407.501 16.2676L394.501 23.7676L396.499 27.2324L409.499 19.7324L407.501 16.2676Z" fill="#6166BE"/>
</svg>
