<svg width="31" height="58" viewBox="0 0 31 58" fill="none" xmlns="http://www.w3.org/2000/svg">
<g id="Vector">
<path d="M19.9297 38.8353C20.3317 38.1043 20.6188 37.6188 20.8642 37.1124C21.663 35.4887 22.3469 33.7919 23.2605 32.2309C24.7902 29.6205 27.479 29.7197 29.0713 32.2675C30.058 33.8337 30.1468 35.306 29.2018 36.9192C28.5217 38.1291 27.9082 39.3752 27.3641 40.6521C25.8894 44.0242 24.1141 47.2568 22.0597 50.3106C21.6226 51.0424 21.2505 51.811 20.9477 52.6078C20.7493 53.0463 20.6188 53.511 20.4256 53.9547C18.9638 57.4109 16.202 57.9852 13.5498 55.3696C13.0582 54.8819 12.6318 54.3326 12.2812 53.7355C11.3537 52.1772 10.2073 50.7601 8.87719 49.5275C6.03707 46.9171 3.83388 43.7846 1.71423 40.5842C0.7536 39.1328 0.863237 37.5614 1.94395 36.4702C2.49649 35.9214 3.23364 35.5981 4.01163 35.5634C4.78962 35.5286 5.55266 35.7849 6.15192 36.2823C7.10094 37.0487 7.97501 37.9035 8.76233 38.8353C9.95268 40.1248 11.1117 41.4457 12.3543 42.8135C12.8398 42.2027 12.6779 41.5501 12.6571 40.9653C12.5735 38.5116 12.2655 37.175 12.135 33.7293C11.7225 23.3712 11.1743 22.066 11.1274 11.6975C11.1274 10.6846 11.1274 9.66655 11.1639 8.65372C11.1329 7.95429 11.2764 7.25814 11.5816 6.62804C11.9864 5.87393 12.2082 5.03515 12.229 4.17948C12.2399 3.9667 12.2696 3.7553 12.3177 3.54776C12.4527 2.83689 12.8297 2.1947 13.3845 1.73026C13.9394 1.26582 14.6379 1.00779 15.3614 1C16.0603 1.01411 16.7333 1.26669 17.2689 1.71584C17.8044 2.165 18.1704 2.78374 18.306 3.46945C18.4273 4.04485 18.4937 4.63047 18.5044 5.21842C19.2562 23.9559 19.9297 17.9729 19.6947 36.7365C19.6143 37.441 19.6928 38.1546 19.9244 38.8248" fill="#5F70DB"/>
<path d="M19.9297 38.8353C20.3317 38.1043 20.6188 37.6188 20.8642 37.1124C21.663 35.4887 22.3469 33.7919 23.2605 32.2309C24.7902 29.6205 27.479 29.7197 29.0713 32.2675C30.058 33.8337 30.1468 35.306 29.2018 36.9192C28.5217 38.1291 27.9082 39.3752 27.3641 40.6521C25.8894 44.0242 24.1141 47.2568 22.0597 50.3106C21.6226 51.0424 21.2505 51.811 20.9477 52.6078C20.7493 53.0463 20.6188 53.511 20.4256 53.9547C18.9638 57.4109 16.202 57.9852 13.5498 55.3696C13.0582 54.8819 12.6318 54.3326 12.2812 53.7355C11.3537 52.1772 10.2073 50.7601 8.87719 49.5275C6.03707 46.9171 3.83388 43.7846 1.71423 40.5842C0.7536 39.1328 0.863237 37.5614 1.94395 36.4702C2.49649 35.9214 3.23364 35.5981 4.01163 35.5634C4.78962 35.5286 5.55266 35.7849 6.15192 36.2823C7.10094 37.0487 7.97501 37.9035 8.76233 38.8353C9.95268 40.1248 11.1117 41.4457 12.3543 42.8135C12.8398 42.2027 12.6779 41.5501 12.6571 40.9653C12.5735 38.5116 12.2655 37.175 12.135 33.7293C11.7225 23.3712 11.1743 22.066 11.1274 11.6975C11.1274 10.6846 11.1274 9.66655 11.1639 8.65372C11.1329 7.95429 11.2764 7.25814 11.5816 6.62804C11.9864 5.87393 12.2082 5.03515 12.229 4.17948C12.2399 3.9667 12.2696 3.7553 12.3177 3.54776C12.4527 2.83689 12.8297 2.1947 13.3845 1.73026C13.9394 1.26582 14.6379 1.00779 15.3614 1C16.0603 1.01411 16.7333 1.26669 17.2689 1.71584C17.8044 2.165 18.1704 2.78374 18.306 3.46945C18.4273 4.04485 18.4937 4.63047 18.5044 5.21842C19.2562 23.9559 19.9297 17.9729 19.6947 36.7365C19.6143 37.441 19.6928 38.1546 19.9244 38.8248" stroke="#5F70DB" stroke-width="2"/>
</g>
</svg>
