<svg width="31" height="58" viewBox="0 0 31 58" fill="none" xmlns="http://www.w3.org/2000/svg">
<g id="Vector">
<path d="M10.8197 38.8353C10.4223 38.1043 10.1384 37.6188 9.89588 37.1124C9.10626 35.4887 8.43017 33.7919 7.52701 32.2309C6.01486 29.6205 3.35698 29.7197 1.78289 32.2675C0.807478 33.8337 0.719743 35.306 1.65387 36.9192C2.32623 38.1291 2.93269 39.3752 3.47052 40.6521C4.92835 44.0242 6.68326 47.2568 8.71403 50.3106C9.14612 51.0424 9.51395 51.811 9.8133 52.6078C10.0094 53.0463 10.1384 53.511 10.3294 53.9547C11.7745 57.4109 14.5046 57.9852 17.1263 55.3696C17.6123 54.8819 18.0339 54.3326 18.3804 53.7355C19.2973 52.1772 20.4305 50.7601 21.7454 49.5275C24.5529 46.9171 26.7308 43.7846 28.8262 40.5842C29.7758 39.1328 29.6674 37.5614 28.5991 36.4702C28.0529 35.9214 27.3242 35.5981 26.5551 35.5634C25.7861 35.5286 25.0318 35.7849 24.4394 36.2823C23.5012 37.0487 22.6372 37.9035 21.8589 38.8353C20.6822 40.1248 19.5365 41.4457 18.3082 42.8135C17.8282 42.2027 17.9882 41.5501 18.0089 40.9653C18.0914 38.5116 18.3959 37.175 18.525 33.7293C18.9327 23.3712 19.4746 22.066 19.521 11.6975C19.521 10.6846 19.521 9.66655 19.4849 8.65372C19.5156 7.95429 19.3737 7.25814 19.072 6.62804C18.6718 5.87393 18.4526 5.03515 18.4321 4.17948C18.4213 3.9667 18.3919 3.7553 18.3443 3.54776C18.2108 2.83689 17.8382 2.1947 17.2897 1.73026C16.7412 1.26582 16.0507 1.00779 15.3355 1C14.6447 1.01411 13.9794 1.26669 13.4499 1.71584C12.9205 2.165 12.5588 2.78374 12.4247 3.46945C12.3048 4.04485 12.2392 4.63047 12.2286 5.21842C11.4854 23.9559 10.8197 17.9729 11.0519 36.7365C11.1314 37.441 11.0538 38.1546 10.8248 38.8248" fill="#5F70DB"/>
<path d="M10.8197 38.8353C10.4223 38.1043 10.1384 37.6188 9.89588 37.1124C9.10626 35.4887 8.43017 33.7919 7.52701 32.2309C6.01486 29.6205 3.35698 29.7197 1.78289 32.2675C0.807478 33.8337 0.719743 35.306 1.65387 36.9192C2.32623 38.1291 2.93269 39.3752 3.47052 40.6521C4.92835 44.0242 6.68326 47.2568 8.71403 50.3106C9.14612 51.0424 9.51395 51.811 9.8133 52.6078C10.0094 53.0463 10.1384 53.511 10.3294 53.9547C11.7745 57.4109 14.5046 57.9852 17.1263 55.3696C17.6123 54.8819 18.0339 54.3326 18.3804 53.7355C19.2973 52.1772 20.4305 50.7601 21.7454 49.5275C24.5529 46.9171 26.7308 43.7846 28.8262 40.5842C29.7758 39.1328 29.6674 37.5614 28.5991 36.4702C28.0529 35.9214 27.3242 35.5981 26.5551 35.5634C25.7861 35.5286 25.0318 35.7849 24.4394 36.2823C23.5012 37.0487 22.6372 37.9035 21.8589 38.8353C20.6822 40.1248 19.5365 41.4457 18.3082 42.8135C17.8282 42.2027 17.9882 41.5501 18.0089 40.9653C18.0914 38.5116 18.3959 37.175 18.525 33.7293C18.9327 23.3712 19.4746 22.066 19.521 11.6975C19.521 10.6846 19.521 9.66655 19.4849 8.65372C19.5156 7.95429 19.3737 7.25814 19.072 6.62804C18.6718 5.87393 18.4526 5.03515 18.4321 4.17948C18.4213 3.9667 18.3919 3.7553 18.3443 3.54776C18.2108 2.83689 17.8382 2.1947 17.2897 1.73026C16.7412 1.26582 16.0507 1.00779 15.3355 1C14.6447 1.01411 13.9794 1.26669 13.4499 1.71584C12.9205 2.165 12.5588 2.78374 12.4247 3.46945C12.3048 4.04485 12.2392 4.63047 12.2286 5.21842C11.4854 23.9559 10.8197 17.9729 11.0519 36.7365C11.1314 37.441 11.0538 38.1546 10.8248 38.8248" stroke="#5F70DB" stroke-width="2"/>
</g>
</svg>
