<svg width="287" height="135" viewBox="0 0 287 135" fill="none" xmlns="http://www.w3.org/2000/svg">
<path d="M2 132.5C14.6648 118.016 36 111 58.5485 118.813C68.5712 122.286 76.4537 126.226 80.157 123.129C83.9901 119.924 92.5245 103.032 90.5993 95.1939C88.7054 87.4837 83.444 88.6403 82.1721 98.1386C80.487 110.722 97.5483 129.355 104.832 122.317C112.116 115.279 113.905 108.568 124.594 111.777C141.55 116.866 181.636 124.398 206.334 113.805C237.207 100.563 212.501 15.0001 284.999 11.5001M284.999 11.5001L274 2.00007M284.999 11.5001L277 22.5001" stroke="#6166BE" stroke-width="4" stroke-linecap="round" stroke-linejoin="round"/>
</svg>
