<svg width="56" height="101" viewBox="0 0 56 101" fill="none" xmlns="http://www.w3.org/2000/svg">
<g id="Frame">
<g id="Group">
<g id="Clip path group">
<mask id="mask0_0_621" style="mask-type:luminance" maskUnits="userSpaceOnUse" x="23" y="1" width="32" height="27">
<g id="burst-top-clip-path">
<path id="Vector" d="M47.014 27.4559C44.6762 27.3175 42.4281 26.5114 40.539 25.1341C36.3857 21.9067 32.1623 18.749 28.009 15.5101C26.6749 14.5974 25.5633 13.3989 24.7558 12.0027C23.9482 10.6065 23.4652 9.04798 23.3423 7.44167C23.1668 6.43632 23.3508 5.40156 23.8623 4.51717C24.3738 3.63278 25.1806 2.95466 26.1423 2.60064C27.3331 1.91279 28.6836 1.54567 30.0604 1.5355C31.4373 1.52532 32.793 1.87242 33.994 2.54259C35.4961 3.34317 36.9284 4.26739 38.2757 5.30558C42.149 8.34719 45.859 11.5862 50.0123 14.2911C51.4258 15.2259 52.6197 16.4535 53.5123 17.8899C56.324 22.3014 53.5123 27.363 48.134 27.5488C47.7243 27.5657 47.314 27.5424 46.909 27.4791" fill="white"/>
</g>
</mask>
<g mask="url(#mask0_0_621)">
<path id="Vector_2" d="M47.4786 20.8966C41.4262 17.0758 35.7086 12.7535 30.387 7.97552" stroke="#5D6ED6" stroke-width="13" stroke-miterlimit="10" stroke-linecap="round"/>
</g>
</g>
<g id="Clip path group_2">
<mask id="mask1_0_621" style="mask-type:luminance" maskUnits="userSpaceOnUse" x="1" y="39" width="36" height="18">
<g id="burst-middle-clip-path">
<path id="Vector_3" d="M32.0816 55.8288C30.0002 56.7947 27.6735 57.1105 25.4082 56.7343C20.2982 55.7824 15.1649 54.9233 10.0666 53.9481C8.48314 53.7205 6.96941 53.149 5.63268 52.2743C4.29596 51.3996 3.16896 50.243 2.33156 48.8865C1.70769 48.075 1.38042 47.0761 1.40375 46.0546C1.42708 45.0332 1.79962 44.0501 2.4599 43.2676C3.1491 42.1074 4.13803 41.1519 5.3239 40.5007C6.50977 39.8494 7.84929 39.5261 9.20323 39.5643C10.8785 39.5875 12.5488 39.7506 14.1966 40.0519C18.9682 40.969 23.6932 42.1416 28.5466 42.6291C30.2261 42.7967 31.8476 43.3319 33.2949 44.1964C34.3173 44.7259 35.1741 45.5244 35.7721 46.5049C36.37 47.4854 36.6862 48.6103 36.6862 49.7572C36.6862 50.9041 36.37 52.029 35.7721 53.0095C35.1741 53.99 34.3173 54.7885 33.2949 55.318C32.9465 55.5226 32.5793 55.6936 32.1982 55.8288" fill="white"/>
</g>
</mask>
<g mask="url(#mask1_0_621)">
<path id="Vector_4" d="M29.3606 49.8153C22.377 49.0241 15.441 47.8615 8.58228 46.3325" stroke="#5D6ED6" stroke-width="13" stroke-miterlimit="10" stroke-linecap="round"/>
</g>
</g>
<g id="Clip path group_3">
<mask id="mask2_0_621" style="mask-type:luminance" maskUnits="userSpaceOnUse" x="14" y="75" width="33" height="25">
<g id="burst-bottom-clip-path">
<path id="Vector_5" d="M39.2075 75.2278C36.8972 75.2121 34.629 75.8437 32.6625 77.0505C28.2758 79.8947 23.8308 82.6693 19.4558 85.5252C18.0749 86.3119 16.888 87.3956 15.9818 88.6971C15.0755 89.9986 14.4727 91.4851 14.2175 93.048C13.9626 94.0072 14.0571 95.0253 14.4841 95.922C14.9112 96.8186 15.6433 97.536 16.5508 97.947C17.6859 98.7052 18.998 99.1601 20.3608 99.2678C21.7236 99.3756 23.0913 99.1326 24.3325 98.5623C25.8909 97.8967 27.3896 97.1005 28.8125 96.1824C32.8958 93.5007 36.8392 90.61 41.1792 88.2766C42.6687 87.4801 43.9664 86.371 44.9825 85.026C48.1325 80.9396 45.7525 75.8199 40.4325 75.2511C40.0443 75.2183 39.654 75.2183 39.2658 75.2511" fill="white"/>
</g>
</mask>
<g mask="url(#mask2_0_621)">
<path id="Vector_6" d="M39.1818 81.4619C33.4768 85.2465 25.2868 90.1571 21.0518 92.6415" stroke="#5D6ED6" stroke-width="13" stroke-miterlimit="10" stroke-linecap="round"/>
</g>
</g>
</g>
</g>
</svg>
