<svg width="56" height="101" viewBox="0 0 56 101" fill="none" xmlns="http://www.w3.org/2000/svg">
<g id="Frame">
<g id="Group">
<g id="Clip path group">
<mask id="mask0_0_636" style="mask-type:luminance" maskUnits="userSpaceOnUse" x="1" y="1" width="32" height="27">
<g id="burst-top-clip-path">
<path id="Vector" d="M8.98601 27.4559C11.3238 27.3175 13.5719 26.5114 15.461 25.1341C19.6143 21.9067 23.8377 18.749 27.991 15.5101C29.3251 14.5974 30.4367 13.3989 31.2442 12.0027C32.0518 10.6065 32.5348 9.04798 32.6577 7.44167C32.8332 6.43632 32.6492 5.40156 32.1377 4.51717C31.6262 3.63278 30.8194 2.95466 29.8577 2.60064C28.6669 1.91279 27.3164 1.54567 25.9396 1.5355C24.5627 1.52532 23.207 1.87242 22.006 2.54259C20.5039 3.34317 19.0716 4.26739 17.7243 5.30558C13.851 8.34719 10.141 11.5862 5.98768 14.2911C4.57416 15.2259 3.38026 16.4535 2.48768 17.8899C-0.323991 22.3014 2.48768 27.363 7.86601 27.5488C8.27565 27.5657 8.68597 27.5424 9.09101 27.4791" fill="white"/>
</g>
</mask>
<g mask="url(#mask0_0_636)">
<path id="Vector_2" d="M8.52137 20.8966C14.5738 17.0758 20.2914 12.7535 25.613 7.97552" stroke="#5D6ED6" stroke-width="13" stroke-miterlimit="10" stroke-linecap="round"/>
</g>
</g>
<g id="Clip path group_2">
<mask id="mask1_0_636" style="mask-type:luminance" maskUnits="userSpaceOnUse" x="19" y="39" width="36" height="18">
<g id="burst-middle-clip-path">
<path id="Vector_3" d="M23.9184 55.8288C25.9998 56.7947 28.3265 57.1105 30.5918 56.7343C35.7018 55.7824 40.8351 54.9233 45.9334 53.9481C47.5169 53.7205 49.0306 53.149 50.3673 52.2743C51.704 51.3996 52.831 50.243 53.6684 48.8865C54.2923 48.075 54.6196 47.0761 54.5962 46.0546C54.5729 45.0332 54.2004 44.0501 53.5401 43.2676C52.8509 42.1074 51.862 41.1519 50.6761 40.5007C49.4902 39.8494 48.1507 39.5261 46.7968 39.5643C45.1215 39.5875 43.4512 39.7506 41.8034 40.0519C37.0318 40.969 32.3068 42.1416 27.4534 42.6291C25.7739 42.7967 24.1524 43.3319 22.7051 44.1964C21.6827 44.7259 20.8259 45.5244 20.2279 46.5049C19.63 47.4854 19.3138 48.6103 19.3138 49.7572C19.3138 50.9041 19.63 52.029 20.2279 53.0095C20.8259 53.99 21.6827 54.7885 22.7051 55.318C23.0535 55.5226 23.4207 55.6936 23.8018 55.8288" fill="white"/>
</g>
</mask>
<g mask="url(#mask1_0_636)">
<path id="Vector_4" d="M26.6394 49.8153C33.623 49.0241 40.559 47.8615 47.4177 46.3325" stroke="#5D6ED6" stroke-width="13" stroke-miterlimit="10" stroke-linecap="round"/>
</g>
</g>
<g id="Clip path group_3">
<mask id="mask2_0_636" style="mask-type:luminance" maskUnits="userSpaceOnUse" x="9" y="75" width="33" height="25">
<g id="burst-bottom-clip-path">
<path id="Vector_5" d="M16.7925 75.2278C19.1028 75.2121 21.371 75.8437 23.3375 77.0505C27.7242 79.8947 32.1692 82.6693 36.5442 85.5252C37.9251 86.3119 39.112 87.3956 40.0182 88.6971C40.9245 89.9986 41.5273 91.4851 41.7825 93.048C42.0374 94.0072 41.9429 95.0253 41.5159 95.922C41.0888 96.8186 40.3567 97.536 39.4492 97.947C38.3141 98.7052 37.002 99.1601 35.6392 99.2678C34.2764 99.3756 32.9087 99.1326 31.6675 98.5623C30.1091 97.8967 28.6104 97.1005 27.1875 96.1824C23.1042 93.5007 19.1608 90.61 14.8208 88.2766C13.3313 87.4801 12.0336 86.371 11.0175 85.026C7.86749 80.9396 10.2475 75.8199 15.5675 75.2511C15.9557 75.2183 16.346 75.2183 16.7342 75.2511" fill="white"/>
</g>
</mask>
<g mask="url(#mask2_0_636)">
<path id="Vector_6" d="M16.8182 81.4619C22.5232 85.2465 30.7132 90.1571 34.9482 92.6415" stroke="#5D6ED6" stroke-width="13" stroke-miterlimit="10" stroke-linecap="round"/>
</g>
</g>
</g>
</g>
</svg>
