<svg width="880" height="738" viewBox="0 0 880 738" fill="none" xmlns="http://www.w3.org/2000/svg">
<ellipse cx="440" cy="313.886" rx="411.036" ry="288.023" fill="white"/>
<path d="M733.69 465.634C673.707 465.634 613.723 465.634 553.739 465.634C514.112 465.634 474.104 464.2 434.489 465.887C425.752 466.259 408.411 465.757 405.909 477.023C399.948 503.865 455.689 502.427 470.909 502.839C495.063 503.492 520.055 500.089 541.599 488.539C547.877 485.174 558.711 479.705 559.051 471.202C559.784 452.846 513.025 438.605 504.041 436.148C440.061 418.649 373.122 410.706 307.524 402.107C302.423 401.438 253.451 392.076 239.489 396.412C231.805 398.798 234.995 415.815 235.569 421.468C238.306 448.403 263.887 462.338 287.038 470.696C360.553 497.236 460.702 488.945 528.701 449.056C538.331 443.406 520.07 440.157 516.813 439.312C480.627 429.923 441.461 427.683 404.265 426.151C377.424 425.045 345.968 423.465 321.561 437.034C313.076 441.751 309.661 446.84 321.435 448.55C357.612 453.805 396.005 452.799 432.212 448.929C469.559 444.938 516.778 441.971 547.164 417.166C564.749 402.81 582.314 382.854 580.928 358.447C578.796 320.889 526.251 304.523 496.58 298.337C458.765 290.453 407.3 286.579 370.121 300.109C353.205 306.264 337.767 327.277 347.106 345.666C362.477 375.935 421.253 371.928 447.388 368.192C493.998 361.528 538.565 341.164 575.49 312.131C586.698 303.318 611.415 284.054 598.632 267.206C589.916 255.718 573.516 249.526 560.695 244.68C536.551 235.555 511.153 229.189 485.705 225.065C442.72 218.101 386.431 212.098 343.944 224.939C310.524 235.039 286.917 262.675 274.139 294.034C268.388 308.146 254.688 339.766 262.505 355.41C267.967 366.343 296.353 354.393 300.442 353.006C341.238 339.167 380.389 320.069 417.796 298.843C445.182 283.303 474.21 264.915 496.706 242.402C511.908 227.19 531.539 195.995 516.181 174.573C496.785 147.517 449.03 144.775 419.567 143.188C374.176 140.744 329.483 145.43 288.049 165.208C244.479 186.006 204.914 216.34 167.661 246.705C149.957 261.135 131.526 275.86 116.571 293.275C99.8828 312.708 110.106 333.024 134.781 337.061C194.884 346.892 263.09 324.377 317.641 302.133C378.6 277.277 435.565 244.137 490.384 207.981C494.412 205.324 525.539 190.228 525.539 183.178C525.539 177.588 493.863 176.101 491.648 175.838C444.104 170.189 396.084 168.582 348.244 167.739C299.163 166.873 247.344 165.396 199.022 175.585C152.886 185.313 112.866 213.571 80.404 246.958C69.4025 258.273 66.7465 269.313 66.7465 284.923C66.7465 307.015 65.8015 336.906 84.9565 351.993C112.624 373.786 148.378 376.389 182.077 377.303C236.386 378.776 287.493 377.603 335.851 349.969C378.211 325.761 417.674 294.485 447.135 255.31C456.683 242.613 475.404 215.421 467.115 198.111C455.999 174.895 418.305 169.282 396.551 166.473C352.455 160.78 302.705 161.228 260.987 178.369C183.19 210.335 164.513 305.047 157.038 379.581C152.085 428.969 146.156 495.54 204.334 512.963C239.941 523.627 279.301 527.136 316.376 527.136C335.351 527.136 357.993 525.168 372.018 510.685C400.299 481.481 392.694 434.78 363.419 410.965C312.804 369.791 233.417 359.825 170.19 361.231C133.761 362.041 106.722 383.931 92.0382 416.66C82.1885 438.613 75.3105 473.431 92.2911 493.728C111.786 517.029 161.157 519.513 188.653 520.176C211.41 520.725 362.529 529.773 329.022 471.961C304.264 429.246 257.128 386.123 208.001 376.291C182.153 371.117 153.428 370.396 127.194 373.633C118.006 374.767 105.459 375.77 102.155 386.161C89.879 424.77 119.495 453.117 147.427 474.619C163.974 487.356 179.739 502.181 197.505 513.216C213.079 522.89 230.737 527.227 247.583 533.97C275.279 545.056 304.049 549.263 333.322 553.332C359.466 556.966 386.654 556.749 412.991 556.749C453.859 556.749 489.05 546.372 527.689 534.097C552.051 526.357 577.472 520.566 599.897 507.901C630.656 490.529 661.617 468.097 687.659 444.121C717.585 416.569 741.468 382.401 744.566 340.857C745.422 329.371 746.363 315.296 733.437 310.739C708.398 301.909 676.503 303.051 650.48 304.917C598.618 308.638 546.321 323.168 515.675 367.685C510.86 374.681 505.528 384.096 504.294 392.742C503.233 400.175 520.805 391.834 523.263 390.97C540.248 384.998 566.326 383.1 578.399 367.685C607.167 330.956 478.004 337.873 467.368 339.592C423.154 346.735 380.708 361.582 345.209 389.452C335.606 396.99 319.104 410.002 319.411 424.126C319.628 434.105 345.125 433.701 351.026 434.756C384.393 440.719 417.661 446.003 451.434 449.183C491.117 452.918 528.009 452.916 566.765 442.096C594.39 434.383 621.37 421.522 646.687 408.181C668.906 396.472 697.873 382.49 706.881 357.055C716.542 329.778 712.976 309.982 698.282 284.923C683.83 260.276 674.772 220.14 649.469 204.185C622.623 187.257 581.369 181.055 550.831 174.573C491.513 161.981 436.375 179.254 378.594 190.011" stroke="white" stroke-width="12" stroke-linecap="round"/>
<path d="M107.717 310.738C109.804 312.594 111.84 313.42 114.799 313.016C141.883 309.32 169.734 294.208 193.456 281.885C248.647 253.218 298.247 215.055 346.472 176.091C351.902 171.704 370.791 159.285 358.359 151.287C341.064 140.161 312.581 137.341 292.6 135.849C269.162 134.098 253.883 136.185 235.947 152.3C207.441 177.911 178.47 203.291 151.472 230.507C133.52 248.603 116.399 268.649 107.717 293.022C102.24 308.399 103.165 324.306 103.165 340.351C103.165 343.72 101.116 366.9 105.694 366.167C132.732 361.837 162.511 349.81 187.892 339.845C222.785 326.145 257.337 309.399 288.806 288.972C302.412 280.14 310.162 277.367 310.304 260.372C310.58 227.509 315.159 186.589 292.347 159.64C262.453 124.323 200.543 121.296 159.313 133.318C115.521 146.086 82.5878 184.775 57.3867 220.889C44.6074 239.202 28.3012 265.813 28.3012 289.099C28.3012 314.925 56.3767 328.455 75.7232 339.591C114.973 362.185 156.738 386.846 201.044 397.93C286.047 419.196 376.679 392.767 457.123 366.293C497.389 353.042 538.036 336.39 574.983 315.421C592.766 305.328 610.365 293.477 622.025 276.317C633.987 258.713 640.746 236.831 639.982 215.447C638.476 173.227 566.037 172.882 537.677 170.523C464.309 164.419 385.822 163.133 316.121 190.011C286.915 201.274 250.705 217.129 249.351 253.032C247.569 300.306 280.459 351.515 303.476 390.464C325.902 428.414 351.16 467.087 397.308 476.011C462.38 488.594 544.871 487.06 599.389 444.627C619.285 429.142 636.113 408.659 643.903 384.39C660.637 332.254 635.763 287.967 596.86 252.906C545.957 207.029 477.068 173.401 407.931 169.384C371.938 167.293 329.59 178.622 313.339 214.309C298.857 246.112 305.555 288.808 324.847 316.939C383.175 401.991 511.044 335.826 579.409 306.815C649.915 276.896 735.248 247.634 771.879 174.319C776.602 164.867 791.219 135.561 779.34 126.357C770.717 119.677 757.771 116.418 747.852 112.311C730.093 104.957 712.237 97.9763 693.854 92.3159C660.457 82.0325 627.068 76.5599 592.434 72.8274C585.904 72.1237 516.598 66.8271 517.823 61.3115C519.209 55.073 541.152 57.8947 545.012 57.8947C571.118 57.8947 590.978 66.7011 614.058 78.3956C653.978 98.6224 700.519 118.986 730.274 153.565C750.171 176.687 773.208 200.176 786.042 228.229C794.591 246.913 801.439 265.194 804.252 285.682C807.552 309.709 810.807 340.828 803.494 364.395C789 411.103 749.854 448.502 709.914 474.239C673.771 497.529 632.744 522.014 590.79 532.957C568.285 538.828 545.147 539.806 521.996 538.779C492.279 537.46 459.917 535.6 431.958 524.352C401.934 512.274 385.556 489.286 372.775 460.572C355.052 420.754 351.402 390.437 378.339 353.006C398.033 325.639 426.689 307.381 456.238 292.262C505.865 266.87 557.027 248.096 612.541 241.896C664.209 236.125 730.576 231.197 768.465 275.431C827.096 343.883 781.507 437.206 723.698 489.045C641.032 563.175 509.708 579.173 403.252 576.617C373.252 575.896 337.144 575.47 311.569 557.128C289.189 541.078 277.984 513.672 275.402 487.02C268.82 419.093 299.473 354.835 349.254 310.232C392.753 271.258 454.847 265.637 510.742 276.823C534.76 281.63 559.544 290.53 579.535 305.044C600.518 320.277 597.113 353.531 597.113 376.797" stroke="white" stroke-width="12" stroke-linecap="round"/>
<path d="M644.914 217.345C663.486 217.345 686.597 213.716 704.097 220.129C741.972 234.009 772.142 262.424 790.468 297.957C807.337 330.663 803.784 374.734 777.569 400.967C737.041 441.524 675.899 462.222 621.14 473.732C585.727 481.177 547.89 485.483 511.627 485.122C490.029 484.907 470.938 479.002 454.214 465.127C442.448 455.366 433.017 443.252 423.105 431.718C415.522 422.894 404.014 414.544 398.446 404.257C382.626 375.031 477.65 357.713 489.37 355.03C524.132 347.073 560.984 341.522 596.733 344.273C613.794 345.587 634.877 350.104 642.006 367.938C651.185 390.903 628.008 409.599 610.77 419.949C568.573 445.286 516.963 456.216 468.757 462.849C446.152 465.96 422.473 468.767 399.584 467.911C386.025 467.404 398.662 449.775 402.872 444.626C425.159 417.367 458.459 403.238 493.037 401.979C495.749 401.881 526.426 404.033 511.374 412.736C503.477 417.302 491.93 417.798 483.047 417.798C482.091 417.798 471.671 416.408 475.206 413.242C480.286 408.695 493.732 410.964 499.613 410.964C515.589 410.964 531.565 410.964 547.541 410.964C548.188 410.964 561.108 412.016 557.658 409.446C535.889 393.234 509.349 380.96 484.311 370.975C461.089 361.714 437.166 356.24 412.609 351.993C403.091 350.346 389.878 346.177 383.144 355.536C372.944 369.714 367.776 391.787 386.938 399.828C422.459 414.734 462.03 421.061 499.992 426.403C513.57 428.314 509.029 413.669 502.016 406.409C487.178 391.048 465.902 385.165 445.109 385.908C437.312 386.186 447.872 392.64 451.432 392.741C453.707 392.806 467.691 392.741 464.078 392.741C428.922 392.741 393.767 392.741 358.611 392.741C329.855 392.741 303.361 394.697 275.149 400.714C263.569 403.183 241.515 402.966 234.176 414.508C228.702 423.116 233.998 441.365 238.981 448.423C271.746 494.83 343.609 521.47 397.434 529.667C403.623 530.609 461.544 536.466 454.467 520.049C444.677 497.337 420.662 475.547 403.125 458.8C387.609 443.983 370.902 427.181 350.771 418.81C326.235 408.608 298.927 401.172 273.125 395.019C231.735 385.149 191.244 379.074 148.69 379.074C139.528 379.074 122.912 374.816 116.822 384.136C109.513 395.322 107.717 408.313 107.717 421.215C107.717 438.658 123.989 458.158 133.768 471.075C149.346 491.654 177.247 505.715 199.273 518.531C214.158 527.19 232.604 535.223 249.351 539.031C261.775 541.857 272.766 549.813 285.265 553.331C303.42 558.441 320.128 565.548 338.757 569.276C401.252 581.784 469.72 588.612 533.251 580.286C592.655 572.502 647.167 526.385 678.552 477.529C687.412 463.737 701.568 445.306 701.568 427.922C701.568 415.409 690.827 404.084 683.358 395.272C659.128 366.691 631.632 337.606 599.895 317.319C539.895 278.966 457.606 290.237 390.226 290.237C324.453 290.237 259.422 290.729 196.997 314.155C176.538 321.832 156.784 331.915 141.355 347.69C131.741 357.521 124.428 370.456 115.684 381.226C105.775 393.43 100.877 400.069 103.67 416.533C108.516 445.085 129.886 472.72 149.196 493.474C163.52 508.871 176.484 521.35 196.618 528.401C241.813 544.231 284.111 552.192 333.193 552.192C379.253 552.192 425.693 554.254 471.413 547.637C515.847 541.206 556.619 522.777 597.113 504.357" stroke="white" stroke-width="12" stroke-linecap="round"/>
<path d="M652.887 268.811C573.888 268.811 494.889 268.811 415.89 268.811C396.621 268.811 378.243 263.468 359.087 263.468C350.467 263.468 341.741 263.07 333.133 263.468C317.648 264.183 303.494 272.947 288.641 276.825C271.311 281.349 261.189 284.976 251.119 299.532C242.022 312.681 244.343 314.139 257.199 322.24C259.835 323.9 276.649 325.949 273.513 331.441C271.418 335.11 252.448 339.177 248.597 340.346C227.989 346.603 206.649 351.325 185.715 356.375C166.793 360.939 124.093 375.447 107.111 358.453C99.5661 350.902 101.711 335.361 108.891 328.176C139.024 298.021 165.581 257.513 204.401 238.089C228.9 225.831 248.494 202.938 271.734 188.074C316.01 159.753 355.887 136.701 407.584 123.514C428.843 118.091 449.537 116.538 471.357 116.538C482.651 116.538 494.573 121.881 475.361 121.881C446.842 121.881 418.304 121.564 389.787 121.881C361.458 122.196 336.541 134.498 311.184 145.776C290.204 155.106 268.705 163.189 249.191 175.31C218.952 194.092 185.08 201.175 159.612 226.661C150.614 235.666 140 242.428 130.989 251.446C117.277 265.167 107.847 283.686 100.289 301.462C86.9676 332.789 95.9205 374.054 115.713 401.196C135.184 427.898 170.209 450.398 199.062 465.904C234.378 484.883 266.072 506.198 306.734 513.99C327.44 517.958 351.694 514.584 372.732 514.584C400.719 514.584 428.037 513.4 455.34 506.569C471.601 502.501 485.938 502.224 484.556 483.565C481.93 448.078 442.634 419.145 412.627 407.726C372.379 392.41 326.75 392.665 284.192 394.517C275.842 394.88 240.255 396.099 245.038 410.991C251.787 432.002 266.817 450.223 285.675 461.006C300.954 469.744 320.457 465.709 337.286 468.575C361.719 472.737 389.398 469.169 414.11 469.169C445.14 469.169 478.835 473.045 509.324 465.904C542.857 458.05 575.807 434.45 602.017 413.217C629.051 391.317 650.913 372.546 670.387 343.314C671.039 342.336 679.299 330.942 677.951 330.402C670.819 327.548 657.572 330.254 650.069 330.254C603.697 330.254 574.873 367.338 543.435 396.446C531.162 407.809 503.392 421.651 503.392 440.377C503.392 452.662 497.143 486.434 506.061 495.884C514.263 504.574 522.565 506.569 534.24 506.569C586.754 506.569 635.781 473.533 672.167 438.002C696.437 414.302 724.343 384.612 736.978 352.516C744.065 334.512 757 309.927 757 290.182C757 266.114 731.139 251.397 716.956 235.269C703.564 220.04 694.205 201.149 680.176 186.589C666.473 172.369 653.114 169.614 633.162 174.123C618.541 177.427 609.715 190.399 616.7 205.29C629.197 231.934 666.929 257.68 694.117 267.475C706.175 271.819 716.482 272.617 724.965 282.168C737.419 296.189 738.773 264.799 740.982 255.008C747.293 227.042 759.335 190.617 753.737 161.359C746.088 121.389 692.874 124.925 662.972 113.867C639.77 105.286 608.907 99.5707 584.368 95.7602C553.618 90.9853 520.041 89.1314 490.044 97.2444C462.572 104.674 434.332 107.513 405.953 108.672C392.973 109.202 376.931 110.558 364.575 115.054C351.171 119.932 339.577 136.211 329.871 145.924" stroke="white" stroke-width="33" stroke-linecap="round"/>
<path d="M49.4007 197.659C54.5703 166.62 99.3482 145.727 122.845 129.84C168.514 98.9603 211.571 70.019 263.448 50.0521C339.356 20.836 419.35 11.5639 499.881 7.70336C558.729 4.88232 619.739 3.84093 677.129 18.7509C716.952 29.0968 759.97 60.2183 786.299 91.6337C814.29 125.03 846.675 167.123 856.831 210.548C868.651 261.09 878.337 330.058 853.764 378.255C841.644 402.028 825.722 420.549 807.919 439.937C787.611 462.053 766.566 487.228 740.454 502.693C693.307 530.616 630.973 538.021 578.079 549.031C541.758 556.591 506.827 556.703 469.829 556.703C433.342 556.703 396.483 558.193 360.045 556.089C295.433 552.359 236.815 529.772 178.964 502.693C151.102 489.651 125.511 469.579 100.459 451.752C82.5788 439.028 63.9001 428.285 48.0208 413.085C25.229 391.269 14.0586 356.673 10.1485 326.24C6.58314 298.489 3.5819 265.212 15.6684 239.087C31.5626 204.731 60.5568 156.231 104.599 156.231" stroke="white" stroke-width="12" stroke-linecap="round"/>
<path d="M655.016 23.1617C600.567 23.1617 546.118 23.1617 491.669 23.1617C456.851 23.1617 425.638 23.4009 392.604 35.5679C362.905 46.5065 334.14 59.8163 303.641 68.5363C280.63 75.1156 257.877 80.1877 235.57 88.8687C222.89 93.8032 211.107 100.887 199.411 107.823C188.119 114.519 175.114 117.57 163.711 124.02C143.753 135.308 128.32 146.526 110.678 161.238C91.3573 177.35 66.9716 185.384 45.9356 198.916C30.1991 209.04 25.3887 227.409 20.6816 244.865C8.99636 288.2 16.3354 340.995 31.4719 382.942C43.6023 416.557 54.4496 450.21 70.7304 482.191C78.093 496.654 88.4387 504.923 99.6577 515.734C110.939 526.605 125.925 532.53 139.375 540.087C160.043 551.698 179.359 565.68 200.903 575.697C250.172 598.606 301.957 602.255 355.412 606.713C375.76 608.41 395.952 608.321 416.366 608.321C442.782 608.321 470.266 610.786 496.375 606.253C537.669 599.085 579.867 589.402 620.12 577.765C654.282 567.889 688.27 555.554 721.595 543.303C747.085 533.933 769.18 522.764 790.929 507.004C822.285 484.282 834.687 446.523 852.916 414.417C859.84 402.222 861.684 387.337 867.379 374.671C871.87 364.685 867.189 353.389 871.512 343.655C874.567 336.776 871.971 324.327 871.971 316.775C871.971 310.517 874.052 299.75 871.512 294.031C867.871 285.833 869.221 276.251 866.232 267.61C864.216 261.784 863.243 251.477 859.115 246.933C852.004 239.105 849.247 225.167 844.651 215.458C840.968 207.677 837.034 200.057 833.172 192.713C815.792 159.668 784.528 131.199 757.869 105.41C744.827 92.7938 727.476 84.9502 712.871 74.3948C697.18 63.0544 679.276 60.7589 662.822 51.6501C635.472 36.5095 603.061 31.4325 572.367 31.4325" stroke="white" stroke-width="12" stroke-linecap="round"/>
<path d="M642.621 50.0421C580.749 50.0421 518.876 50.0421 457.004 50.0421C416.334 50.0421 370.72 44.4645 330.619 53.0288C302.121 59.115 276.947 74.6863 250.266 85.6525C218.339 98.7743 186.918 104.705 161.073 128.844C137.634 150.736 106.999 168.131 87.8364 193.977C58.6477 233.346 51.6772 287.265 51.6772 334.466C51.6772 371.535 66.6834 423.663 94.4943 450.257C119.537 474.204 153.788 490.118 184.835 504.477C235.177 527.759 289.548 542.855 344.624 549.507C455.421 562.888 565.103 532.088 662.595 479.205C710.906 452.999 739.556 411.979 746.851 357.555C749.962 334.346 752.908 307.524 749.147 284.152C744.46 255.021 722.484 243.474 698.639 230.851C660.025 210.41 619.352 193.985 576.846 183.639C499.554 164.825 410.505 155.715 332.915 177.321C258.097 198.154 186.376 248.711 145.576 315.397C124.884 349.219 102.503 405.364 135.13 439.114C155.736 460.43 184.598 475.139 211.351 486.901C265.131 510.545 322.856 519.191 381.127 522.627C468.459 527.776 561.079 516.701 620.581 445.662C654.109 405.633 681.731 347.925 676.943 294.26C671.368 231.773 587.492 196.926 537.243 178.929C482.264 159.238 419.616 151.125 366.204 179.618C313.358 207.81 299.673 253.964 302.61 311.491C304.681 352.047 311.24 393.805 339.343 425.1C371.811 461.255 419.193 466.032 465.154 464.042C527.705 461.333 589.201 447.177 644.687 418.093" stroke="white" stroke-width="12" stroke-linecap="round"/>
<path d="M764.532 169.969C732.887 169.969 702.411 157.727 671.551 151.819C631.61 144.173 591.695 145.156 551.25 145.156C495.745 145.156 448.845 148.478 400.874 179.848C365.908 202.713 335.177 233.224 308.123 264.853C293.809 281.588 280.468 304.23 285.28 327.459C294.033 369.712 356.424 395.517 390.543 409.133C471.932 441.613 564.508 455.251 651.922 453.244C678.797 452.627 705.849 449.952 732.161 444.284C741.865 442.193 751.311 439.436 759.137 433.141C779.072 417.104 774.604 381.741 773.026 359.278C770.573 324.35 760.24 287.348 731.931 264.394C697.888 236.79 649.464 228.91 607.039 226.716C561.738 224.373 518.482 228.224 480.31 254.974C437.919 284.681 406.514 330.151 393.528 380.185C390.12 393.315 385.55 411.541 391.002 424.985C397.725 441.565 416.954 447.821 432.786 450.487C496.429 461.204 565.796 434.454 619.321 401.896C642.356 387.885 682.74 360.845 686.245 330.33C687.729 317.41 678.145 306.993 668.567 299.774C641.242 279.182 605.385 271.237 572.142 267.38C516.404 260.914 455.014 263.038 402.941 285.99C391.647 290.967 360.655 308.157 364.371 325.046C366.667 335.483 381.135 340.627 389.395 343.196C414.011 350.852 440.739 352.143 466.305 352.616C513.876 353.496 570.58 353.789 609.564 322.06C626.951 307.908 627.435 292.535 608.187 279.327C585.59 263.821 556.251 257.159 530.129 251.298C481.349 240.354 431.211 232.235 381.245 229.588C331.169 226.935 270.636 236.608 242.348 283.922C236.547 293.625 233.213 308.19 235.346 319.532C240.418 346.509 280.124 348.709 300.547 349.859C403.033 355.628 495.968 313.271 586.836 271.286C643.291 245.201 698.222 215.714 752.364 185.132C759.967 180.837 781.279 173.195 768.205 163.536C729.174 134.698 671.471 128.912 625.176 123.101C574.114 116.691 517.712 111.231 466.42 118.966C441.265 122.759 419.967 134.908 409.713 158.941C404.597 170.932 396.357 194.608 401.907 207.877C411.733 231.366 467.812 212.408 482.261 207.073C515.088 194.952 542.818 174.353 571.568 155.035C577.85 150.815 590.047 145.531 590.853 136.656C593.058 112.392 580.319 88.4034 570.306 67.0433C559.573 44.149 533.649 53.2627 514.058 58.7725C473.791 70.0973 433.336 79.9654 392.609 89.4434C307.012 109.364 225.236 151.875 150.171 196.389C129.712 208.522 109.643 218.857 93.005 236.135C75.2192 254.605 61.9198 285.208 52.8282 309.194C47.4359 323.42 48.5944 335.341 60.1748 346.298C86.849 371.535 126.902 387.263 161.65 396.497C251.586 420.397 349.423 394.287 431.409 355.373C460.92 341.365 488.958 323.781 516.584 306.437C529.964 298.037 548.538 288.643 559.056 275.881C566.83 266.449 564.193 251.792 555.153 244.406C530.273 224.077 484.953 222.549 455.056 219.364C384.467 211.843 309.48 209.055 246.136 245.899C191.002 277.969 140.738 333.972 135.592 400.403C133.836 423.078 144.019 442.689 167.849 446.007C214.931 452.562 259.174 419.091 292.167 389.949C336.03 351.207 370.424 305.019 402.941 256.812" stroke="white" stroke-width="29" stroke-linecap="round"/>
<path d="M544.761 602.306C558.412 602.927 569.96 608.493 581.434 615.72C606.557 631.544 630.114 650.674 652.504 670.136C669.037 684.507 681.793 703.631 698.535 717.339C711.783 728.185 721.417 741.253 737.737 748.09C746.791 751.882 756.876 756.302 765.053 761.757C766.971 763.037 769.988 767.564 770.111 763.023C770.599 744.962 770.422 726.572 768.593 708.607C759.431 618.586 716.147 535.434 690.442 449.689" stroke="white" stroke-width="12" stroke-linecap="round"/>
<path d="M694.996 513.469C694.996 544.009 694.996 574.549 694.996 605.09C694.996 632.607 699.588 649.304 709.666 674.058C714.309 685.464 719.274 696.493 723.45 708.1C725.688 714.322 733.881 725.273 721.553 716.705C688.668 693.853 655.546 671.518 623.294 647.736C594.445 626.464 562.801 605.64 539.199 578.388C528.53 566.069 519.433 551.738 510.619 538.019C507.408 533.02 509.638 532.309 515.172 533.21C535.881 536.584 555.237 545.775 573.09 556.495C628.377 589.691 679.566 635.173 722.311 683.296C735.549 698.199 746.126 715.026 758.732 729.866C767.387 740.057 723.556 717.286 722.059 716.452C673.95 689.658 625.407 660.553 584.471 623.313C573.255 613.109 562.194 600.277 556.65 585.854C553.512 577.69 565.117 581.498 571.32 583.323C608.924 594.391 644.202 620.388 674.763 643.94C694.286 658.986 714.867 674.144 727.876 695.445C739.087 713.805 706.185 682.666 704.86 681.525C666.06 648.125 629.936 609.046 605.463 563.835C604.382 561.837 589.161 522.233 591.932 523.086C599.388 525.382 604.637 535.052 609.257 540.55C621.125 554.67 632.864 568.604 644.16 583.197C668.145 614.181 695.825 641.836 718.644 673.805C725.904 683.977 733.432 694.178 740.016 704.81C744.756 712.465 745.832 717.002 738.625 705.696C715.963 670.146 697.531 631.269 688.673 589.904C685.211 573.736 683.738 556.123 677.292 540.803C656.302 490.917 740.11 630.176 759.996 680.512C766.789 697.706 743.192 647.58 734.704 631.159C717.864 598.578 703.919 564.64 692.214 529.92C687.327 515.422 683.651 500.719 679.063 486.134C677.408 480.876 677.427 472.787 672.234 470.189" stroke="white" stroke-width="12" stroke-linecap="round"/>
<path d="M633.531 185.455C615.122 183.152 671.827 180.136 689.173 186.721C714.642 196.388 743.45 209.937 763.278 228.735C782.305 246.773 803.027 263.537 812.091 289.098C818.769 307.932 827.21 338.004 815.379 356.422C794.699 388.613 765.215 426.064 732.675 446.904C678.703 481.47 613.732 475.23 553.23 484.995C547.253 485.96 541.302 482.623 549.562 481.705C569.791 479.456 590.048 477.422 610.263 474.745C654.482 468.888 695.826 457.443 733.686 433.237C753.523 420.555 767.275 403.601 781.741 385.908C795.647 368.9 811.647 352.903 822.966 334.023C839.432 306.561 850.661 276.733 839.406 244.553C834.875 231.599 826.948 212.678 815.632 204.184C777.041 175.221 734.613 176.344 687.782 176.344C605.34 176.344 526.097 185.154 446.119 205.829C396.127 218.753 329.076 231.993 296.392 277.076C274.961 306.637 267.509 347.707 256.937 381.985C248.786 408.41 246.486 433.625 244.291 461.078" stroke="white" stroke-width="12" stroke-linecap="round"/>
<path d="M543.487 189.948C544.16 184.556 575.525 190.359 579.399 190.951C586.951 192.106 594.416 193.752 601.669 196.171C604.298 197.048 611.453 197.021 609.493 198.982C606.767 201.71 582.679 195.562 579.299 195.368C544.403 193.373 509.148 192.332 474.37 188.944C449.768 186.547 426.243 182.72 401.442 182.72C395.97 182.72 381.633 183.168 396.426 182.619C477.035 179.632 557.96 170.42 638.785 175.894C662.611 177.507 685.109 184.682 708.202 189.948C732.092 195.395 755.186 202.403 778.222 210.727C793.702 216.321 802.884 224.092 812.429 236.827C817.232 243.236 820.952 258.263 817.545 265.839C813.16 275.589 801.386 284.95 794.071 292.541C787.684 299.17 775.794 324.082 778.322 315.228C780.796 306.562 795.449 299.02 801.695 292.943C811.988 282.929 821.713 275.102 826.874 261.221C833.962 242.158 836.728 219.701 836.003 199.384C835.324 180.368 808.807 171.618 795.476 165.554C782.857 159.814 762.267 161.037 748.428 161.037C734.979 161.037 749.85 160.268 752.943 166.457" stroke="white" stroke-width="33" stroke-linecap="round"/>
<path d="M803.504 198.984C803.504 228.47 808.921 257.024 808.921 286.62C808.921 307.316 809.739 327.097 804.407 347.253C799.947 364.112 794.721 380.408 788.658 396.742C771.612 442.668 727.099 471.407 683.328 488.093C661.023 496.596 637.84 502.826 615.515 511.382C597.931 518.122 578.649 524.232 559.741 524.232" stroke="white" stroke-width="33" stroke-linecap="round"/>
<path d="M631.108 547.492C631.78 542.113 645.714 559.287 646.694 560.885C649.911 566.131 652.565 570.99 655.164 576.481C658.779 584.118 667.24 590.048 669.14 598.605C672.687 614.577 668.032 565.866 666.176 549.611C663.365 525 658.917 499.398 647.879 477.307" stroke="white" stroke-width="33" stroke-linecap="round"/>
<path d="M813.22 408.62C813.22 390.077 822.421 374.21 829.041 357.347C834.911 342.396 842.746 328.007 847.654 312.697C852.584 297.315 848.99 281.074 839.278 268.926" stroke="white" stroke-width="33" stroke-linecap="round"/>
<path d="M707.649 532.252C707.649 539.317 707.494 545.63 710.479 552.254C713.833 559.695 719.385 566.1 722.89 573.432C724.758 577.34 726.398 581.368 727.854 585.416C728.28 586.598 729.596 589.675 729.596 589.512" stroke="white" stroke-width="17" stroke-linecap="round"/>
<path d="M522.43 594.529C525.78 594.529 528.847 594.973 532.014 596.128C541.024 599.411 549.904 604.122 558.011 609.251C571.175 617.58 584.409 626.784 596.374 636.787C601.246 640.86 605.722 645.383 610.57 649.472C615.649 653.756 621.564 657.195 627.136 660.79C641.053 669.769 653.546 679.708 665.886 690.75C673.523 697.584 682.076 702.298 690.31 708.23C696.849 712.942 702.707 718.654 709.788 722.591C714.758 725.354 719.943 727.816 724.061 731.796C725.593 733.275 727.745 733.997 729.704 734.683C730.658 735.018 731.588 735.371 732.564 735.637C735.541 736.45 737.28 740.376 739.005 742.573" stroke="white" stroke-width="12" stroke-linecap="round"/>
<path d="M760.802 744.893C760.961 744.26 761.441 744.665 761.833 744.403C762.654 743.855 760.043 743.569 759.154 743.14C757.526 742.355 755.849 741.487 754.31 740.717" stroke="white" stroke-width="12" stroke-linecap="round"/>
<path d="M567.816 614.227C566.476 614.227 565.221 613.439 564.059 612.851C561.896 611.754 559.833 610.479 557.651 609.411C554.97 608.099 552.264 606.728 549.525 605.554C547.852 604.836 546.271 604.06 544.566 603.392C543.108 602.821 541.822 601.984 540.367 601.402C538.854 600.796 537.196 600.326 535.825 599.412C535.177 598.979 534.724 598.492 534.009 598.134C532.372 597.315 530.897 596.457 529.147 595.874" stroke="white" stroke-width="12" stroke-linecap="round"/>
<path d="M101.512 440.462C104.276 442.675 108.483 443.777 111.562 445.714C116.456 448.792 121.03 452.369 125.856 455.548C136.091 462.29 145.942 469.013 155.56 476.669C173.007 490.557 191.4 504.783 210.112 516.899C235.053 533.049 263.509 540.136 290.905 550.535C320.543 561.785 355.781 565.569 386.942 560.146" stroke="white" stroke-width="12" stroke-linecap="round"/>
<path d="M643.259 54.7571C648.314 54.7571 655.399 55.7131 660.455 55.7131C664.276 56.3546 663.321 53.8011 666.904 56.3546C668.103 56.7545 669.296 57.0316 670.438 57.603C671.7 58.2342 672.809 59.1324 674.181 59.4756" stroke="white" stroke-width="7" stroke-linecap="round"/>
</svg>
