<svg width="110" height="80" viewBox="0 0 110 80" fill="none" xmlns="http://www.w3.org/2000/svg">
<path d="M66 10C69.0422 10 71.5 12.2344 71.5 15V50C71.5 52.7656 69.0422 55 66 55H47.3516H45.375H31.625H29.6484H11C7.95781 55 5.5 52.7656 5.5 50V15C5.5 12.2344 7.95781 10 11 10H66ZM11 60H27.8094L24.1484 70H13.75C12.2375 70 11 71.125 11 72.5C11 73.875 12.2375 75 13.75 75H22.3094H26.125H50.875H54.6906H63.25C64.7625 75 66 73.875 66 72.5C66 71.125 64.7625 70 63.25 70H52.8516L49.1906 60H66C72.0672 60 77 55.5156 77 50V15C77 9.48438 72.0672 5 66 5H11C4.93281 5 0 9.48438 0 15V50C0 55.5156 4.93281 60 11 60ZM29.9406 70L33.6016 60H43.3812L47.0422 70H29.9406ZM90.75 10H101.75C103.263 10 104.5 11.125 104.5 12.5V20H88V12.5C88 11.125 89.2375 10 90.75 10ZM88 25H104.5V30H88V25ZM88 67.5V35H104.5V67.5C104.5 68.875 103.263 70 101.75 70H90.75C89.2375 70 88 68.875 88 67.5ZM82.5 12.5V67.5C82.5 71.6406 86.1953 75 90.75 75H101.75C106.305 75 110 71.6406 110 67.5V12.5C110 8.35938 106.305 5 101.75 5H90.75C86.1953 5 82.5 8.35938 82.5 12.5ZM96.25 56.25C97.344 56.25 98.3932 55.8549 99.1668 55.1516C99.9404 54.4484 100.375 53.4946 100.375 52.5C100.375 51.5054 99.9404 50.5516 99.1668 49.8484C98.3932 49.1451 97.344 48.75 96.25 48.75C95.156 48.75 94.1068 49.1451 93.3332 49.8484C92.5596 50.5516 92.125 51.5054 92.125 52.5C92.125 53.4946 92.5596 54.4484 93.3332 55.1516C94.1068 55.8549 95.156 56.25 96.25 56.25Z" fill="black"/>
</svg>
