<svg width="39" height="40" viewBox="0 0 39 40" fill="none" xmlns="http://www.w3.org/2000/svg">
<path id="Shape" fill-rule="evenodd" clip-rule="evenodd" d="M37.5141 18.2181L20.82 0.75446C19.8593 -0.251487 18.2999 -0.251487 17.338 0.75446L13.8714 4.38105L18.2689 8.98154C19.2909 8.62033 20.4626 8.8626 21.2773 9.71494C22.0958 10.5725 22.3257 11.8089 21.972 12.8816L26.2101 17.3153C27.2354 16.9457 28.4184 17.1849 29.2373 18.043C30.3818 19.2398 30.3818 21.1797 29.2373 22.3775C28.0925 23.5752 26.2382 23.5752 25.0929 22.3775C24.232 21.476 24.0193 20.1532 24.4552 19.0436L20.5029 14.9088L20.5024 25.7899C20.7814 25.9347 21.0449 26.1274 21.2773 26.3697C22.4218 27.5665 22.4218 29.5065 21.2773 30.7051C20.1324 31.9024 18.2773 31.9024 17.1341 30.7051C15.9896 29.5065 15.9896 27.5665 17.1341 26.3697C17.4168 26.0743 17.7441 25.8509 18.0931 25.7008V14.7183C17.7441 14.5691 17.4173 14.347 17.1341 14.0495C16.2669 13.1436 16.0584 11.8124 16.5027 10.6985L12.1682 6.16296L0.721476 18.1373C-0.240492 19.1442 -0.240492 20.7755 0.721476 21.7815L17.4156 39.2455C18.3767 40.2515 19.9357 40.2515 20.8981 39.2455L37.5141 21.8627C38.4757 20.8563 38.4757 19.224 37.5141 18.2181" fill="#9B9B9B"/>
</svg>
