<svg width="132" height="98" viewBox="0 0 132 98" fill="none" xmlns="http://www.w3.org/2000/svg">
<path d="M63.36 7.48113L9.8175 27.9996L25.08 33.8401C27.2044 32.3307 29.5144 31.0839 31.9687 30.0995L64.845 17.0185C66.5569 16.3404 68.4544 17.2591 69.0937 19.0747C69.7331 20.8903 68.8669 22.9028 67.155 23.5809L34.2787 36.6619C33.9694 36.7713 33.6806 36.9025 33.3919 37.0338L63.36 48.518C64.2056 48.8461 65.0925 48.9992 66 48.9992C66.9075 48.9992 67.7944 48.8242 68.64 48.518L122.183 27.9996L68.64 7.48113C67.7944 7.15301 66.9075 6.99989 66 6.99989C65.0925 6.99989 64.2056 7.17489 63.36 7.48113ZM61.1119 55.1023L26.1731 41.715C20.5013 46.8118 16.9331 54.2273 16.5412 62.3209C17.7581 65.2083 18.645 68.3364 19.305 71.3989C20.625 77.4363 21.5119 85.8143 19.7381 95.1766C19.5525 96.1172 19.0369 96.9266 18.2737 97.4516C17.5106 97.9766 16.5825 98.1297 15.7162 97.8891L2.51625 94.3891C1.44375 94.1048 0.5775 93.2735 0.20625 92.1579C-0.165 91.0423 0.020625 89.8173 0.680625 88.8986C2.45438 86.3393 3.98062 83.5174 5.32125 80.6737C7.6725 75.6426 9.9 69.2114 9.9 62.999C9.9 62.8678 9.9 62.7365 9.92062 62.6053C10.2094 53.6367 13.6331 45.3024 19.2225 39.0463L3.25875 32.9432C1.29938 32.1776 0 30.2089 0 27.9996C0 25.7902 1.29938 23.8215 3.25875 23.0559L61.1119 0.896861C62.6794 0.306245 64.3294 0 66 0C67.6706 0 69.3206 0.306245 70.8881 0.896861L128.741 23.0559C130.701 23.7996 132 25.7902 132 27.9996C132 30.2089 130.701 32.1776 128.741 32.9432L70.8881 55.1023C69.3206 55.6929 67.6706 55.9991 66 55.9991C64.3294 55.9991 62.6794 55.6929 61.1119 55.1023ZM35.9494 52.9148L33.0825 81.8768C33.2269 82.0518 33.4538 82.3362 33.8456 82.6862C35.0831 83.8237 37.2487 85.2018 40.425 86.5143C46.695 89.1173 55.7494 90.9986 66 90.9986C76.2506 90.9986 85.305 89.1173 91.5956 86.4924C94.7719 85.1799 96.9169 83.8018 98.175 82.6643C98.5669 82.3143 98.7938 82.0518 98.9381 81.855L96.0506 52.8929L102.444 50.443L105.6 82.2487C105.6 89.9705 87.8625 97.9985 66 97.9985C44.1375 97.9985 26.4 89.9705 26.4 82.2487L29.5556 50.443L35.9494 52.8929V52.9148ZM99.1031 81.5925C99.1095 81.5879 99.1146 81.5815 99.1178 81.5741C99.121 81.5666 99.1221 81.5584 99.1211 81.5503C99.12 81.5422 99.1169 81.5345 99.1119 81.5282C99.107 81.5219 99.1005 81.5172 99.0932 81.5146C99.0859 81.512 99.078 81.5117 99.0705 81.5136C99.063 81.5155 99.0562 81.5196 99.0508 81.5254C99.0454 81.5312 99.0416 81.5386 99.0399 81.5466C99.0382 81.5545 99.0387 81.5629 99.0413 81.5706C99.0348 81.5751 99.0298 81.5815 99.0266 81.589C99.0234 81.5964 99.0223 81.6047 99.0233 81.6128C99.0244 81.6209 99.0275 81.6285 99.0324 81.6348C99.0373 81.6411 99.0438 81.6459 99.0512 81.6484C99.0585 81.651 99.0663 81.6514 99.0738 81.6495C99.0813 81.6476 99.0882 81.6435 99.0936 81.6376C99.099 81.6318 99.1028 81.6245 99.1045 81.6165C99.1061 81.6085 99.1057 81.6002 99.1031 81.5925ZM32.8969 81.5925C32.8969 81.5983 32.899 81.6038 32.9029 81.6079C32.9068 81.612 32.912 81.6143 32.9175 81.6143C32.923 81.6143 32.9282 81.612 32.9321 81.6079C32.936 81.6038 32.9381 81.5983 32.9381 81.5925C32.9381 81.5867 32.936 81.5811 32.9321 81.577C32.9282 81.5729 32.923 81.5706 32.9175 81.5706C32.912 81.5706 32.9068 81.5729 32.9029 81.577C32.899 81.5811 32.8969 81.5867 32.8969 81.5925ZM13.8187 90.1673C14.3344 85.6393 14.1694 81.4175 13.7156 77.7644C12.9319 79.9519 12.0656 81.9862 11.22 83.8018C10.4363 85.4643 9.59063 87.1268 8.64188 88.7892L13.8187 90.1673Z" fill="#6166BE"/>
</svg>
