<svg width="40" height="40" viewBox="0 0 40 40" fill="none" xmlns="http://www.w3.org/2000/svg">
<g id="Javascript/Type4" clip-path="url(#clip0_603_667)">
<g id="Group">
<path id="Shape" fill-rule="evenodd" clip-rule="evenodd" d="M0 0H40V40H0V0V0Z" fill="#F7DF1E"/>
<path id="Shape_2" fill-rule="evenodd" clip-rule="evenodd" d="M10.5176 33.4269L13.5787 31.5744C14.1693 32.6215 14.7065 33.5074 15.995 33.5074C17.2302 33.5074 18.0089 33.0242 18.0089 31.1448V18.3639H21.7679V31.198C21.7679 35.0913 19.4858 36.8634 16.1562 36.8634C13.1491 36.8634 11.4036 35.3061 10.5176 33.4266" fill="black"/>
<path id="Shape_3" fill-rule="evenodd" clip-rule="evenodd" d="M23.8096 33.0241L26.8703 31.252C27.676 32.5678 28.7232 33.5343 30.5757 33.5343C32.1333 33.5343 33.1265 32.7556 33.1265 31.6816C33.1265 30.3927 32.1062 29.9362 30.3877 29.1847L29.4482 28.7816C26.7362 27.6273 24.9371 26.1774 24.9371 23.1164C24.9371 20.2971 27.0851 18.1489 30.4416 18.1489C32.8313 18.1489 34.5497 18.9814 35.7847 21.1563L32.858 23.0357C32.2135 21.8812 31.5156 21.4249 30.4416 21.4249C29.3407 21.4249 28.6426 22.123 28.6426 23.0357C28.6426 24.1635 29.3407 24.62 30.9516 25.3182L31.8913 25.7209C35.0865 27.0904 36.8856 28.4865 36.8856 31.6278C36.8856 35.0112 34.2274 36.8637 30.6564 36.8637C27.1658 36.8637 24.9103 35.1991 23.8096 33.0241" fill="black"/>
</g>
</g>
<defs>
<clipPath id="clip0_603_667">
<rect width="40" height="40" fill="white"/>
</clipPath>
</defs>
</svg>
