<svg width="87" height="26" id="my-CV" viewBox="0 0 87 26" fill="none" xmlns="http://www.w3.org/2000/svg">
<g id="my CV">
<path d="M0.199997 20.328V5.684H5.212V7.924C5.64133 7.15867 6.248 6.53333 7.032 6.048C7.816 5.544 8.74 5.292 9.804 5.292C11.7453 5.292 13.0707 6.104 13.78 7.728C14.9747 6.104 16.5893 5.292 18.624 5.292C20.0613 5.292 21.2187 5.75867 22.096 6.692C22.9733 7.62533 23.412 8.97867 23.412 10.752V20.328H18.4V11.592C18.4 10.864 18.232 10.3133 17.896 9.94C17.56 9.56667 17.1027 9.38 16.524 9.38C15.8333 9.38 15.2827 9.59467 14.872 10.024C14.48 10.4533 14.284 11.06 14.284 11.844V20.328H9.328V11.592C9.328 10.864 9.16 10.3133 8.824 9.94C8.488 9.56667 8.03066 9.38 7.452 9.38C6.76133 9.38 6.21066 9.59467 5.8 10.024C5.408 10.4533 5.212 11.06 5.212 11.844V20.328H0.199997Z" fill="#231F20"/>
<path d="M27.8677 25.228L30.3037 18.844L24.4517 5.684H29.8837L32.9077 13.496L35.7077 5.684H40.4957L32.6557 25.228H27.8677Z" fill="#231F20"/>
<path d="M57.5794 20.664C54.1634 20.664 51.5688 19.7493 49.7954 17.92C48.0221 16.0907 47.1354 13.5987 47.1354 10.444V10.22C47.1354 7.17733 48.0968 4.71333 50.0194 2.828C51.9421 0.942667 54.3874 0 57.3554 0C60.0434 0 62.2088 0.644 63.8514 1.932C65.4941 3.20133 66.4274 5.124 66.6514 7.7H60.7434C60.5194 5.59067 59.3994 4.536 57.3834 4.536C56.0768 4.536 55.0501 5.03067 54.3034 6.02C53.5568 7.00933 53.1834 8.4 53.1834 10.192V10.416C53.1834 12.2267 53.5568 13.6267 54.3034 14.616C55.0501 15.5867 56.1048 16.072 57.4674 16.072C58.4941 16.072 59.3341 15.8013 59.9874 15.26C60.6594 14.7 61.0608 13.8787 61.1914 12.796H66.9034C66.7168 15.3347 65.7834 17.2853 64.1034 18.648C62.4234 19.992 60.2488 20.664 57.5794 20.664Z" fill="#231F20"/>
<path d="M73.9107 20.328L67.2747 0.307999H73.4627L77.5227 14.364L81.6107 0.307999H86.9867L80.4347 20.328H73.9107Z" fill="#231F20"/>
</g>
</svg>
