<svg width="92" height="92" id="my-github" viewBox="0 0 92 92" fill="none" xmlns="http://www.w3.org/2000/svg">
<path fill-rule="evenodd" clip-rule="evenodd" d="M46 1C21.1375 1 1 21.6469 1 47.1382C1 67.5535 13.8801 84.797 31.7663 90.911C31.7679 90.9116 31.7696 90.912 31.7713 90.9123C34.0194 91.3145 34.8625 89.931 34.8625 88.7203C34.8625 87.6283 34.8066 84.0164 34.8062 80.1673C34.8062 80.1465 34.7863 80.1308 34.7657 80.1347C23.493 82.2491 20.5739 77.298 19.675 74.7058C19.1687 73.3793 16.975 69.2846 15.0625 68.1888C13.4875 67.3237 11.2375 65.1898 15.0062 65.1321C18.55 65.0745 21.0812 68.4772 21.925 69.8613C25.9667 76.8254 32.4173 74.8868 35.0153 73.6751C35.0256 73.6703 35.0322 73.6607 35.0337 73.6494C35.4242 70.703 36.5755 68.7052 37.8451 67.5463C37.8663 67.5269 37.8549 67.4915 37.8263 67.4882C27.8362 66.3236 17.425 62.3205 17.425 44.716C17.425 39.7063 19.1633 35.5591 22.024 32.3316C22.0323 32.3222 22.0352 32.3103 22.0306 32.2987C21.5721 31.1163 20.0274 26.4093 22.4817 20.1047C22.4853 20.0953 22.4919 20.0883 22.5015 20.0856C22.7582 20.0134 26.5547 19.0883 34.8492 24.8097C34.8574 24.8153 34.8681 24.8173 34.8777 24.8145C38.4732 23.7793 42.2929 23.2617 46.1125 23.2617C49.9321 23.2617 53.7517 23.7793 57.3472 24.8145C57.3569 24.8172 57.3676 24.8153 57.3759 24.8096C65.673 19.0309 69.4692 20.0102 69.7237 20.0854C69.7332 20.0882 69.7396 20.0952 69.7432 20.1044C72.1977 26.4092 70.6529 31.1162 70.1944 32.2987C70.1898 32.3103 70.1927 32.3222 70.201 32.3316C73.0617 35.5589 74.8 39.6488 74.8 44.716C74.8 62.3778 64.3331 66.3238 54.3429 67.4881C54.3142 67.4915 54.3027 67.5269 54.3241 67.5463C55.9317 69.0015 57.3062 71.7559 57.3062 76.0323C57.3062 82.2033 57.25 87.1631 57.25 88.7203C57.25 89.9314 58.0938 91.3732 60.3438 90.9119C69.277 87.8198 77.0399 81.9334 82.5393 74.0806C88.0386 66.2283 90.9977 56.8053 91 47.1382C91 21.6469 70.8625 1 46 1Z" stroke="black" stroke-width="2" stroke-linecap="round" stroke-linejoin="round"/>
</svg>
